<svg width="362" height="392" viewBox="0 0 362 392" fill="none" xmlns="http://www.w3.org/2000/svg">
<path d="M32 360V278.592H0.512V270.4H72.96V278.592H41.472V360H32ZM126.01 360.768C119.269 360.768 112.997 359.659 107.194 357.44C101.477 355.136 96.4847 351.936 92.218 347.84C88.0367 343.659 84.7513 338.837 82.362 333.376C80.058 327.829 78.906 321.771 78.906 315.2C78.906 308.629 80.058 302.613 82.362 297.152C84.7513 291.605 88.0367 286.784 92.218 282.688C96.4847 278.507 101.477 275.307 107.194 273.088C112.911 270.784 119.183 269.632 126.01 269.632C132.751 269.632 138.981 270.784 144.698 273.088C150.415 275.307 155.365 278.464 159.546 282.56C163.813 286.656 167.098 291.477 169.402 297.024C171.791 302.571 172.986 308.629 172.986 315.2C172.986 321.771 171.791 327.829 169.402 333.376C167.098 338.923 163.813 343.744 159.546 347.84C155.365 351.936 150.415 355.136 144.698 357.44C138.981 359.659 132.751 360.768 126.01 360.768ZM126.01 352.32C131.386 352.32 136.335 351.424 140.858 349.632C145.466 347.755 149.434 345.152 152.762 341.824C156.175 338.411 158.821 334.485 160.698 330.048C162.575 325.525 163.514 320.576 163.514 315.2C163.514 309.824 162.575 304.917 160.698 300.48C158.821 295.957 156.175 292.032 152.762 288.704C149.434 285.291 145.466 282.688 140.858 280.896C136.335 279.019 131.386 278.08 126.01 278.08C120.634 278.08 115.642 279.019 111.034 280.896C106.426 282.688 102.415 285.291 99.002 288.704C95.674 292.032 93.0287 295.957 91.066 300.48C89.1887 304.917 88.25 309.824 88.25 315.2C88.25 320.491 89.1887 325.397 91.066 329.92C93.0287 334.443 95.674 338.411 99.002 341.824C102.415 345.152 106.426 347.755 111.034 349.632C115.642 351.424 120.634 352.32 126.01 352.32ZM202.665 310.464H250.025V318.528H202.665V310.464ZM203.689 351.808H257.577V360H194.217V270.4H255.657V278.592H203.689V351.808Z" fill="#0E131F"/>
<path d="M142 248V166.592H110.512V158.4H182.96V166.592H151.472V248H142ZM179.256 248L220.216 158.4H229.56L270.52 248H260.536L222.904 163.904H226.744L189.112 248H179.256ZM195.384 224.064L198.2 216.384H250.296L253.112 224.064H195.384ZM323.004 248.768C316.263 248.768 310.033 247.659 304.316 245.44C298.599 243.136 293.649 239.936 289.468 235.84C285.287 231.744 282.001 226.923 279.612 221.376C277.308 215.829 276.156 209.771 276.156 203.2C276.156 196.629 277.308 190.571 279.612 185.024C282.001 179.477 285.287 174.656 289.468 170.56C293.735 166.464 298.727 163.307 304.444 161.088C310.161 158.784 316.391 157.632 323.132 157.632C329.617 157.632 335.719 158.741 341.436 160.96C347.153 163.093 351.975 166.336 355.9 170.688L349.884 176.704C346.215 172.949 342.161 170.261 337.724 168.64C333.287 166.933 328.508 166.08 323.388 166.08C318.012 166.08 313.02 167.019 308.412 168.896C303.804 170.688 299.793 173.291 296.38 176.704C292.967 180.032 290.279 183.957 288.316 188.48C286.439 192.917 285.5 197.824 285.5 203.2C285.5 208.576 286.439 213.525 288.316 218.048C290.279 222.485 292.967 226.411 296.38 229.824C299.793 233.152 303.804 235.755 308.412 237.632C313.02 239.424 318.012 240.32 323.388 240.32C328.508 240.32 333.287 239.467 337.724 237.76C342.161 236.053 346.215 233.323 349.884 229.568L355.9 235.584C351.975 239.936 347.153 243.221 341.436 245.44C335.719 247.659 329.575 248.768 323.004 248.768Z" fill="#FF0035"/>
<path d="M93 124V42.592H61.512V34.4H133.96V42.592H102.472V124H93ZM149.092 124V34.4H158.564V124H149.092ZM226.629 124.768C219.888 124.768 213.658 123.659 207.941 121.44C202.224 119.136 197.274 115.936 193.093 111.84C188.912 107.744 185.626 102.923 183.237 97.376C180.933 91.8293 179.781 85.7707 179.781 79.2C179.781 72.6293 180.933 66.5707 183.237 61.024C185.626 55.4773 188.912 50.656 193.093 46.56C197.36 42.464 202.352 39.3067 208.069 37.088C213.786 34.784 220.016 33.632 226.757 33.632C233.242 33.632 239.344 34.7413 245.061 36.96C250.778 39.0933 255.6 42.336 259.525 46.688L253.509 52.704C249.84 48.9493 245.786 46.2613 241.349 44.64C236.912 42.9333 232.133 42.08 227.013 42.08C221.637 42.08 216.645 43.0187 212.037 44.896C207.429 46.688 203.418 49.2907 200.005 52.704C196.592 56.032 193.904 59.9573 191.941 64.48C190.064 68.9173 189.125 73.824 189.125 79.2C189.125 84.576 190.064 89.5253 191.941 94.048C193.904 98.4853 196.592 102.411 200.005 105.824C203.418 109.152 207.429 111.755 212.037 113.632C216.645 115.424 221.637 116.32 227.013 116.32C232.133 116.32 236.912 115.467 241.349 113.76C245.786 112.053 249.84 109.323 253.509 105.568L259.525 111.584C255.6 115.936 250.778 119.221 245.061 121.44C239.344 123.659 233.2 124.768 226.629 124.768Z" fill="#0E131F"/>
</svg>
