<svg width="222" height="196" viewBox="0 0 222 196" fill="none" xmlns="http://www.w3.org/2000/svg">
<path d="M4.63636 30.6818V23.1818H57V30.6818H35.0455V93H26.5909V30.6818H4.63636ZM78.5028 23.1818V93H70.0483V23.1818H78.5028ZM151.636 45H143.182C142.682 42.5682 141.807 40.4318 140.557 38.5909C139.33 36.75 137.83 35.2045 136.057 33.9545C134.307 32.6818 132.364 31.7273 130.227 31.0909C128.091 30.4545 125.864 30.1364 123.545 30.1364C119.318 30.1364 115.489 31.2045 112.057 33.3409C108.648 35.4773 105.932 38.625 103.909 42.7841C101.909 46.9432 100.909 52.0455 100.909 58.0909C100.909 64.1364 101.909 69.2386 103.909 73.3977C105.932 77.5568 108.648 80.7045 112.057 82.8409C115.489 84.9773 119.318 86.0455 123.545 86.0455C125.864 86.0455 128.091 85.7273 130.227 85.0909C132.364 84.4545 134.307 83.5114 136.057 82.2614C137.83 80.9886 139.33 79.4318 140.557 77.5909C141.807 75.7273 142.682 73.5909 143.182 71.1818H151.636C151 74.75 149.841 77.9432 148.159 80.7614C146.477 83.5795 144.386 85.9773 141.886 87.9545C139.386 89.9091 136.58 91.3977 133.466 92.4205C130.375 93.4432 127.068 93.9545 123.545 93.9545C117.591 93.9545 112.295 92.5 107.659 89.5909C103.023 86.6818 99.375 82.5455 96.7159 77.1818C94.0568 71.8182 92.7273 65.4545 92.7273 58.0909C92.7273 50.7273 94.0568 44.3636 96.7159 39C99.375 33.6364 103.023 29.5 107.659 26.5909C112.295 23.6818 117.591 22.2273 123.545 22.2273C127.068 22.2273 130.375 22.7386 133.466 23.7614C136.58 24.7841 139.386 26.2841 141.886 28.2614C144.386 30.2159 146.477 32.6023 148.159 35.4205C149.841 38.2159 151 41.4091 151.636 45Z" fill="white"/>
<path d="M41.6364 70.6818V63.1818H94V70.6818H72.0455V133H63.5909V70.6818H41.6364ZM101.756 133H92.892L118.528 63.1818H127.256L152.892 133H144.028L123.165 74.2273H122.619L101.756 133ZM105.028 105.727H140.756V113.227H105.028V105.727ZM216.668 85H208.213C207.713 82.5682 206.838 80.4318 205.588 78.5909C204.361 76.75 202.861 75.2045 201.088 73.9545C199.338 72.6818 197.395 71.7273 195.259 71.0909C193.122 70.4545 190.895 70.1364 188.577 70.1364C184.349 70.1364 180.52 71.2045 177.088 73.3409C173.679 75.4773 170.963 78.625 168.94 82.7841C166.94 86.9432 165.94 92.0455 165.94 98.0909C165.94 104.136 166.94 109.239 168.94 113.398C170.963 117.557 173.679 120.705 177.088 122.841C180.52 124.977 184.349 126.045 188.577 126.045C190.895 126.045 193.122 125.727 195.259 125.091C197.395 124.455 199.338 123.511 201.088 122.261C202.861 120.989 204.361 119.432 205.588 117.591C206.838 115.727 207.713 113.591 208.213 111.182H216.668C216.031 114.75 214.872 117.943 213.19 120.761C211.509 123.58 209.418 125.977 206.918 127.955C204.418 129.909 201.611 131.398 198.497 132.42C195.406 133.443 192.099 133.955 188.577 133.955C182.622 133.955 177.327 132.5 172.69 129.591C168.054 126.682 164.406 122.545 161.747 117.182C159.088 111.818 157.759 105.455 157.759 98.0909C157.759 90.7273 159.088 84.3636 161.747 79C164.406 73.6364 168.054 69.5 172.69 66.5909C177.327 63.6818 182.622 62.2273 188.577 62.2273C192.099 62.2273 195.406 62.7386 198.497 63.7614C201.611 64.7841 204.418 66.2841 206.918 68.2614C209.418 70.2159 211.509 72.6023 213.19 75.4205C214.872 78.2159 216.031 81.4091 216.668 85Z" fill="black"/>
<path d="M19.6364 110.682V103.182H72V110.682H50.0455V173H41.5909V110.682H19.6364ZM141.051 138.091C141.051 145.455 139.722 151.818 137.062 157.182C134.403 162.545 130.756 166.682 126.119 169.591C121.483 172.5 116.188 173.955 110.233 173.955C104.278 173.955 98.983 172.5 94.3466 169.591C89.7102 166.682 86.0625 162.545 83.4034 157.182C80.7443 151.818 79.4148 145.455 79.4148 138.091C79.4148 130.727 80.7443 124.364 83.4034 119C86.0625 113.636 89.7102 109.5 94.3466 106.591C98.983 103.682 104.278 102.227 110.233 102.227C116.188 102.227 121.483 103.682 126.119 106.591C130.756 109.5 134.403 113.636 137.062 119C139.722 124.364 141.051 130.727 141.051 138.091ZM132.869 138.091C132.869 132.045 131.858 126.943 129.835 122.784C127.835 118.625 125.119 115.477 121.688 113.341C118.278 111.205 114.46 110.136 110.233 110.136C106.006 110.136 102.176 111.205 98.7443 113.341C95.3352 115.477 92.6193 118.625 90.5966 122.784C88.5966 126.943 87.5966 132.045 87.5966 138.091C87.5966 144.136 88.5966 149.239 90.5966 153.398C92.6193 157.557 95.3352 160.705 98.7443 162.841C102.176 164.977 106.006 166.045 110.233 166.045C114.46 166.045 118.278 164.977 121.688 162.841C125.119 160.705 127.835 157.557 129.835 153.398C131.858 149.239 132.869 144.136 132.869 138.091ZM155.267 173V103.182H197.403V110.682H163.722V134.273H195.222V141.773H163.722V165.5H197.949V173H155.267Z" fill="white"/>
</svg>
