<svg width="346" height="349" viewBox="0 0 346 349" fill="none" xmlns="http://www.w3.org/2000/svg">
<path d="M115.682 113.909H230.5V120.727H115.682V113.909Z" fill="#F5F5F5"/>
<path d="M118.091 1.68182V116.5H111.273V1.68182H118.091Z" fill="#F5F5F5"/>
<path d="M118.091 117.682V232.5H111.273V117.682H118.091Z" fill="#F5F5F5"/>
<path d="M118.091 233.682V348.5H111.273V233.682H118.091Z" fill="#F5F5F5"/>
<path d="M234.091 117.682V232.5H227.273V117.682H234.091Z" fill="#F5F5F5"/>
<path d="M234.091 233.682V348.5H227.273V233.682H234.091Z" fill="#F5F5F5"/>
<path d="M0.681816 113.909H115.5V120.727H0.681816L0.681816 113.909Z" fill="#F5F5F5"/>
<path d="M230.682 113.909H345.5V120.727H230.682V113.909Z" fill="#F5F5F5"/>
<path d="M115.682 229.909H230.5V236.727H115.682V229.909Z" fill="#F5F5F5"/>
<path d="M230.682 229.909H345.5V236.727H230.682V229.909Z" fill="#F5F5F5"/>
<path d="M0.681816 229.909H115.5V236.727H0.681816L0.681816 229.909Z" fill="#F5F5F5"/>
<path d="M234.091 1.68182V116.5H227.273V1.68182H234.091Z" fill="#F5F5F5"/>
<path d="M194.32 30.232C195.6 30.232 196.56 30.648 197.2 31.48C197.904 32.248 198.256 33.304 198.256 34.648C198.256 36.12 197.872 37.784 197.104 39.64C194.864 41.688 192.336 44.408 189.52 47.8C186.704 51.192 183.376 55.416 179.536 60.472C183.056 66.232 185.904 70.584 188.08 73.528C190.256 76.408 192.336 78.392 194.32 79.48C195.152 79.928 196.144 80.312 197.296 80.632C198.768 81.08 199.856 81.528 200.56 81.976C201.264 82.424 201.616 83.096 201.616 83.992C201.616 85.784 200.784 87.128 199.12 88.024C197.456 88.856 195.44 89.272 193.072 89.272C190 89.272 186.96 87.576 183.952 84.184C181.008 80.792 177.456 75.736 173.296 69.016C169.264 74.328 165.904 78.648 163.216 81.976C160.528 85.24 158.096 87.896 155.92 89.944C155.472 90.328 154.832 90.648 154 90.904C153.168 91.096 152.464 91.192 151.888 91.192C150.48 91.192 149.264 90.616 148.24 89.464C147.28 88.312 146.768 87.128 146.704 85.912C146.704 85.72 147.056 85.08 147.76 83.992C148.464 82.904 149.552 81.656 151.024 80.248C152.624 79.032 154.704 76.856 157.264 73.72C159.888 70.584 163.408 66.136 167.824 60.376L165.04 55.96C162.608 52.12 160.816 49.368 159.664 47.704C158.512 46.04 157.424 44.792 156.4 43.96C155.376 43.064 154.288 42.616 153.136 42.616C152.752 42.616 152.144 42.744 151.312 43C150.544 43.192 149.904 43.288 149.392 43.288C148.688 43.288 148.048 43.16 147.472 42.904C145.872 42.2 145.072 41.144 145.072 39.736C145.072 39.096 145.2 38.552 145.456 38.104C145.968 36.952 147.024 35.896 148.624 34.936C150.288 33.912 152.528 33.4 155.344 33.4C157.968 33.4 160.24 34.072 162.16 35.416C164.08 36.76 165.84 38.584 167.44 40.888C169.104 43.192 171.376 46.808 174.256 51.736C180.592 43.16 185.072 37.4 187.696 34.456C189.232 32.664 190.448 31.512 191.344 31C192.24 30.488 193.232 30.232 194.32 30.232Z" fill="#F5F5F5"/>
<path d="M198.32 149.232C199.6 149.232 200.56 149.648 201.2 150.48C201.904 151.248 202.256 152.304 202.256 153.648C202.256 155.12 201.872 156.784 201.104 158.64C198.864 160.688 196.336 163.408 193.52 166.8C190.704 170.192 187.376 174.416 183.536 179.472C187.056 185.232 189.904 189.584 192.08 192.528C194.256 195.408 196.336 197.392 198.32 198.48C199.152 198.928 200.144 199.312 201.296 199.632C202.768 200.08 203.856 200.528 204.56 200.976C205.264 201.424 205.616 202.096 205.616 202.992C205.616 204.784 204.784 206.128 203.12 207.024C201.456 207.856 199.44 208.272 197.072 208.272C194 208.272 190.96 206.576 187.952 203.184C185.008 199.792 181.456 194.736 177.296 188.016C173.264 193.328 169.904 197.648 167.216 200.976C164.528 204.24 162.096 206.896 159.92 208.944C159.472 209.328 158.832 209.648 158 209.904C157.168 210.096 156.464 210.192 155.888 210.192C154.48 210.192 153.264 209.616 152.24 208.464C151.28 207.312 150.768 206.128 150.704 204.912C150.704 204.72 151.056 204.08 151.76 202.992C152.464 201.904 153.552 200.656 155.024 199.248C156.624 198.032 158.704 195.856 161.264 192.72C163.888 189.584 167.408 185.136 171.824 179.376L169.04 174.96C166.608 171.12 164.816 168.368 163.664 166.704C162.512 165.04 161.424 163.792 160.4 162.96C159.376 162.064 158.288 161.616 157.136 161.616C156.752 161.616 156.144 161.744 155.312 162C154.544 162.192 153.904 162.288 153.392 162.288C152.688 162.288 152.048 162.16 151.472 161.904C149.872 161.2 149.072 160.144 149.072 158.736C149.072 158.096 149.2 157.552 149.456 157.104C149.968 155.952 151.024 154.896 152.624 153.936C154.288 152.912 156.528 152.4 159.344 152.4C161.968 152.4 164.24 153.072 166.16 154.416C168.08 155.76 169.84 157.584 171.44 159.888C173.104 162.192 175.376 165.808 178.256 170.736C184.592 162.16 189.072 156.4 191.696 153.456C193.232 151.664 194.448 150.512 195.344 150C196.24 149.488 197.232 149.232 198.32 149.232Z" fill="#F5F5F5"/>
<path d="M56.312 148.944C60.6 148.944 64.504 149.488 68.024 150.576C71.544 151.6 74.424 153.136 76.664 155.184C80.696 158.832 83.512 162.832 85.112 167.184C86.776 171.472 87.608 176.976 87.608 183.696C87.608 185.104 87.416 186.384 87.032 187.536C86.712 188.688 86.168 190.16 85.4 191.952C84.44 193.936 83.864 195.504 83.672 196.656C82.392 198.896 80.28 201.04 77.336 203.088C74.456 205.136 71.32 206.8 67.928 208.08C64.536 209.36 61.56 210 59 210C46.648 210 37.848 205.776 32.6 197.328C31.128 194.96 29.976 192.496 29.144 189.936C28.376 187.376 27.992 184.88 27.992 182.448C27.992 175.92 29.144 170.256 31.448 165.456C33.816 160.592 37.08 156.816 41.24 154.128C43.736 152.656 46.328 151.44 49.016 150.48C51.768 149.456 54.2 148.944 56.312 148.944ZM37.976 182.736C37.976 186.192 38.744 189.04 40.28 191.28C41.88 193.52 44.312 195.952 47.576 198.576C50.264 199.6 52.088 200.272 53.048 200.592C54.008 200.848 55.096 200.976 56.312 200.976C62.776 200.976 67.928 199.216 71.768 195.696C75.608 192.176 77.528 187.344 77.528 181.2C77.528 176.336 76.984 172.496 75.896 169.68C74.808 166.864 72.856 164.336 70.04 162.096C68.568 160.88 66.68 159.984 64.376 159.408C62.136 158.832 59.704 158.544 57.08 158.544C53.112 158.544 49.688 159.728 46.808 162.096C43.928 164.4 41.72 167.408 40.184 171.12C38.712 174.832 37.976 178.704 37.976 182.736Z" fill="#F5F5F5"/>
<path d="M175.312 260.944C179.6 260.944 183.504 261.488 187.024 262.576C190.544 263.6 193.424 265.136 195.664 267.184C199.696 270.832 202.512 274.832 204.112 279.184C205.776 283.472 206.608 288.976 206.608 295.696C206.608 297.104 206.416 298.384 206.032 299.536C205.712 300.688 205.168 302.16 204.4 303.952C203.44 305.936 202.864 307.504 202.672 308.656C201.392 310.896 199.28 313.04 196.336 315.088C193.456 317.136 190.32 318.8 186.928 320.08C183.536 321.36 180.56 322 178 322C165.648 322 156.848 317.776 151.6 309.328C150.128 306.96 148.976 304.496 148.144 301.936C147.376 299.376 146.992 296.88 146.992 294.448C146.992 287.92 148.144 282.256 150.448 277.456C152.816 272.592 156.08 268.816 160.24 266.128C162.736 264.656 165.328 263.44 168.016 262.48C170.768 261.456 173.2 260.944 175.312 260.944ZM156.976 294.736C156.976 298.192 157.744 301.04 159.28 303.28C160.88 305.52 163.312 307.952 166.576 310.576C169.264 311.6 171.088 312.272 172.048 312.592C173.008 312.848 174.096 312.976 175.312 312.976C181.776 312.976 186.928 311.216 190.768 307.696C194.608 304.176 196.528 299.344 196.528 293.2C196.528 288.336 195.984 284.496 194.896 281.68C193.808 278.864 191.856 276.336 189.04 274.096C187.568 272.88 185.68 271.984 183.376 271.408C181.136 270.832 178.704 270.544 176.08 270.544C172.112 270.544 168.688 271.728 165.808 274.096C162.928 276.4 160.72 279.408 159.184 283.12C157.712 286.832 156.976 290.704 156.976 294.736Z" fill="#F5F5F5"/>
</svg>
