<svg width="346" height="353" viewBox="0 0 346 353" fill="none" xmlns="http://www.w3.org/2000/svg">
<path d="M115.682 117.909H230.5V124.727H115.682V117.909Z" fill="black"/>
<path d="M118.091 5.68182V120.5H111.273V5.68182H118.091Z" fill="black"/>
<path d="M118.091 121.682V236.5H111.273V121.682H118.091Z" fill="black"/>
<path d="M118.091 237.682V352.5H111.273V237.682H118.091Z" fill="black"/>
<path d="M234.091 121.682V236.5H227.273V121.682H234.091Z" fill="black"/>
<path d="M234.091 237.682V352.5H227.273V237.682H234.091Z" fill="black"/>
<path d="M0.681816 117.909H115.5V124.727H0.681816L0.681816 117.909Z" fill="black"/>
<path d="M230.682 117.909H345.5V124.727H230.682V117.909Z" fill="black"/>
<path d="M115.682 233.909H230.5V240.727H115.682V233.909Z" fill="black"/>
<path d="M230.682 233.909H345.5V240.727H230.682V233.909Z" fill="black"/>
<path d="M0.681816 233.909H115.5V240.727H0.681816L0.681816 233.909Z" fill="black"/>
<path d="M234.091 5.68182V120.5H227.273V5.68182H234.091Z" fill="black"/>
<path d="M79.32 267.232C80.6 267.232 81.56 267.648 82.2 268.48C82.904 269.248 83.256 270.304 83.256 271.648C83.256 273.12 82.872 274.784 82.104 276.64C79.864 278.688 77.336 281.408 74.52 284.8C71.704 288.192 68.376 292.416 64.536 297.472C68.056 303.232 70.904 307.584 73.08 310.528C75.256 313.408 77.336 315.392 79.32 316.48C80.152 316.928 81.144 317.312 82.296 317.632C83.768 318.08 84.856 318.528 85.56 318.976C86.264 319.424 86.616 320.096 86.616 320.992C86.616 322.784 85.784 324.128 84.12 325.024C82.456 325.856 80.44 326.272 78.072 326.272C75 326.272 71.96 324.576 68.952 321.184C66.008 317.792 62.456 312.736 58.296 306.016C54.264 311.328 50.904 315.648 48.216 318.976C45.528 322.24 43.096 324.896 40.92 326.944C40.472 327.328 39.832 327.648 39 327.904C38.168 328.096 37.464 328.192 36.888 328.192C35.48 328.192 34.264 327.616 33.24 326.464C32.28 325.312 31.768 324.128 31.704 322.912C31.704 322.72 32.056 322.08 32.76 320.992C33.464 319.904 34.552 318.656 36.024 317.248C37.624 316.032 39.704 313.856 42.264 310.72C44.888 307.584 48.408 303.136 52.824 297.376L50.04 292.96C47.608 289.12 45.816 286.368 44.664 284.704C43.512 283.04 42.424 281.792 41.4 280.96C40.376 280.064 39.288 279.616 38.136 279.616C37.752 279.616 37.144 279.744 36.312 280C35.544 280.192 34.904 280.288 34.392 280.288C33.688 280.288 33.048 280.16 32.472 279.904C30.872 279.2 30.072 278.144 30.072 276.736C30.072 276.096 30.2 275.552 30.456 275.104C30.968 273.952 32.024 272.896 33.624 271.936C35.288 270.912 37.528 270.4 40.344 270.4C42.968 270.4 45.24 271.072 47.16 272.416C49.08 273.76 50.84 275.584 52.44 277.888C54.104 280.192 56.376 283.808 59.256 288.736C65.592 280.16 70.072 274.4 72.696 271.456C74.232 269.664 75.448 268.512 76.344 268C77.24 267.488 78.232 267.232 79.32 267.232Z" fill="black"/>
<path d="M79.32 30.232C80.6 30.232 81.56 30.648 82.2 31.48C82.904 32.248 83.256 33.304 83.256 34.648C83.256 36.12 82.872 37.784 82.104 39.64C79.864 41.688 77.336 44.408 74.52 47.8C71.704 51.192 68.376 55.416 64.536 60.472C68.056 66.232 70.904 70.584 73.08 73.528C75.256 76.408 77.336 78.392 79.32 79.48C80.152 79.928 81.144 80.312 82.296 80.632C83.768 81.08 84.856 81.528 85.56 81.976C86.264 82.424 86.616 83.096 86.616 83.992C86.616 85.784 85.784 87.128 84.12 88.024C82.456 88.856 80.44 89.272 78.072 89.272C75 89.272 71.96 87.576 68.952 84.184C66.008 80.792 62.456 75.736 58.296 69.016C54.264 74.328 50.904 78.648 48.216 81.976C45.528 85.24 43.096 87.896 40.92 89.944C40.472 90.328 39.832 90.648 39 90.904C38.168 91.096 37.464 91.192 36.888 91.192C35.48 91.192 34.264 90.616 33.24 89.464C32.28 88.312 31.768 87.128 31.704 85.912C31.704 85.72 32.056 85.08 32.76 83.992C33.464 82.904 34.552 81.656 36.024 80.248C37.624 79.032 39.704 76.856 42.264 73.72C44.888 70.584 48.408 66.136 52.824 60.376L50.04 55.96C47.608 52.12 45.816 49.368 44.664 47.704C43.512 46.04 42.424 44.792 41.4 43.96C40.376 43.064 39.288 42.616 38.136 42.616C37.752 42.616 37.144 42.744 36.312 43C35.544 43.192 34.904 43.288 34.392 43.288C33.688 43.288 33.048 43.16 32.472 42.904C30.872 42.2 30.072 41.144 30.072 39.736C30.072 39.096 30.2 38.552 30.456 38.104C30.968 36.952 32.024 35.896 33.624 34.936C35.288 33.912 37.528 33.4 40.344 33.4C42.968 33.4 45.24 34.072 47.16 35.416C49.08 36.76 50.84 38.584 52.44 40.888C54.104 43.192 56.376 46.808 59.256 51.736C65.592 43.16 70.072 37.4 72.696 34.456C74.232 32.664 75.448 31.512 76.344 31C77.24 30.488 78.232 30.232 79.32 30.232Z" fill="black"/>
<path d="M171.312 146.944C175.6 146.944 179.504 147.488 183.024 148.576C186.544 149.6 189.424 151.136 191.664 153.184C195.696 156.832 198.512 160.832 200.112 165.184C201.776 169.472 202.608 174.976 202.608 181.696C202.608 183.104 202.416 184.384 202.032 185.536C201.712 186.688 201.168 188.16 200.4 189.952C199.44 191.936 198.864 193.504 198.672 194.656C197.392 196.896 195.28 199.04 192.336 201.088C189.456 203.136 186.32 204.8 182.928 206.08C179.536 207.36 176.56 208 174 208C161.648 208 152.848 203.776 147.6 195.328C146.128 192.96 144.976 190.496 144.144 187.936C143.376 185.376 142.992 182.88 142.992 180.448C142.992 173.92 144.144 168.256 146.448 163.456C148.816 158.592 152.08 154.816 156.24 152.128C158.736 150.656 161.328 149.44 164.016 148.48C166.768 147.456 169.2 146.944 171.312 146.944ZM152.976 180.736C152.976 184.192 153.744 187.04 155.28 189.28C156.88 191.52 159.312 193.952 162.576 196.576C165.264 197.6 167.088 198.272 168.048 198.592C169.008 198.848 170.096 198.976 171.312 198.976C177.776 198.976 182.928 197.216 186.768 193.696C190.608 190.176 192.528 185.344 192.528 179.2C192.528 174.336 191.984 170.496 190.896 167.68C189.808 164.864 187.856 162.336 185.04 160.096C183.568 158.88 181.68 157.984 179.376 157.408C177.136 156.832 174.704 156.544 172.08 156.544C168.112 156.544 164.688 157.728 161.808 160.096C158.928 162.4 156.72 165.408 155.184 169.12C153.712 172.832 152.976 176.704 152.976 180.736Z" fill="black"/>
</svg>
